<svg width="24" height="24" fill="none" xmlns="http://www.w3.org/2000/svg"><path fill-rule="evenodd" clip-rule="evenodd" d="M4 4.5c-.824 0-1.5.676-1.5 1.5v12c0 .824.676 1.5 1.5 1.5h16c.824 0 1.5-.676 1.5-1.5V6c0-.824-.676-1.5-1.5-1.5H4zM1.5 6c0-1.376 1.124-2.5 2.5-2.5h16c1.376 0 2.5 1.124 2.5 2.5v12c0 1.376-1.124 2.5-2.5 2.5H4A2.506 2.506 0 011.5 18V6z" fill="#397DFF"/><path fill-rule="evenodd" clip-rule="evenodd" d="M1.59 5.713a.5.5 0 01.697-.123L12 12.39l9.713-6.8a.5.5 0 11.574.82l-10 7a.5.5 0 01-.574 0l-10-7a.5.5 0 01-.123-.697z" fill="#397DFF"/></svg>