<svg width="28" height="28" fill="none" xmlns="http://www.w3.org/2000/svg"><g clip-path="url(#clip0)" fill="#fff"><path d="M25.455 0H2.545A2.548 2.548 0 000 2.545v22.91A2.548 2.548 0 002.545 28h22.91A2.548 2.548 0 0028 25.455V2.545A2.548 2.548 0 0025.455 0zm1.272 25.455c0 .701-.57 1.272-1.272 1.272H2.545a1.274 1.274 0 01-1.272-1.272V2.545c0-.701.57-1.272 1.272-1.272h22.91c.701 0 1.272.57 1.272 1.272v22.91z"/><path d="M15.91 15.271h-1.273V4.453a.636.636 0 10-1.273 0V15.27h-1.273a.636.636 0 00-.636.636v2.546c0 .352.285.636.636.636h1.273v4.455a.636.636 0 101.273 0v-4.455h1.273a.636.636 0 00.636-.636v-2.546a.636.636 0 00-.636-.636zm-.637 2.545h-2.545v-1.272h2.545v1.272zm8.273-8.909h-1.272V4.453a.636.636 0 10-1.273 0v4.454h-1.273a.636.636 0 00-.636.637v2.545c0 .352.284.637.636.637h1.273v10.818a.636.636 0 101.273 0V12.725h1.272a.636.636 0 00.637-.636V9.544a.636.636 0 00-.637-.637zm-.636 2.546h-2.546V10.18h2.546v1.273zM8.273 7.635H7V4.453a.636.636 0 10-1.273 0v3.182H4.455a.636.636 0 00-.637.636v2.545c0 .352.285.637.637.637h1.272v12.09a.636.636 0 101.273 0v-12.09h1.273a.636.636 0 00.636-.637V8.271a.636.636 0 00-.636-.636zm-.636 2.545H5.09V8.907h2.546v1.273z"/></g><defs><clipPath id="clip0"><path fill="#fff" d="M0 0h28v28H0z"/></clipPath></defs></svg>